<svg width="14" height="18" viewBox="0 0 14 18" fill="none" xmlns="http://www.w3.org/2000/svg">
<path d="M6.95314 17.7735C7.09345 17.7726 7.22938 17.7241 7.33882 17.6358C7.57521 17.423 13.7959 12.3792 13.7959 7.13518C13.7959 5.30954 13.075 3.55867 11.7917 2.26774C10.5084 0.976821 8.76796 0.251587 6.95314 0.251587C5.13832 0.251587 3.39783 0.976821 2.11456 2.26774C0.831286 3.55867 0.110352 5.30954 0.110352 7.13518C0.110352 12.3792 6.33107 17.423 6.56745 17.6358C6.6769 17.7241 6.81282 17.7726 6.95314 17.7735ZM1.35449 7.13518C1.35449 5.64147 1.94435 4.20894 2.9943 3.15273C4.04425 2.09652 5.46829 1.50315 6.95314 1.50315C8.43799 1.50315 9.86203 2.09652 10.912 3.15273C11.9619 4.20894 12.5518 5.64147 12.5518 7.13518C12.5518 11.0776 8.27815 15.1514 6.95314 16.3279C5.62813 15.1514 1.35449 11.0776 1.35449 7.13518Z" fill="white"/>
<path d="M10.0635 7.13519C10.0635 6.51636 9.88107 5.91141 9.5393 5.39687C9.19753 4.88232 8.71176 4.48128 8.14342 4.24446C7.57507 4.00764 6.94968 3.94568 6.34633 4.06641C5.74298 4.18714 5.18877 4.48514 4.75378 4.92272C4.31879 5.36031 4.02255 5.91783 3.90254 6.52478C3.78253 7.13172 3.84412 7.76084 4.07954 8.33257C4.31495 8.90431 4.71361 9.39298 5.22511 9.73679C5.73661 10.0806 6.33796 10.2641 6.95313 10.2641C7.77805 10.2641 8.56918 9.93445 9.15249 9.34767C9.73579 8.76088 10.0635 7.96503 10.0635 7.13519ZM5.08692 7.13519C5.08692 6.76389 5.19637 6.40093 5.40143 6.0922C5.60649 5.78347 5.89796 5.54285 6.23896 5.40075C6.57997 5.25866 6.9552 5.22149 7.31721 5.29392C7.67922 5.36636 8.01175 5.54516 8.27275 5.80771C8.53374 6.07026 8.71148 6.40477 8.78349 6.76894C8.8555 7.13311 8.81854 7.51058 8.67729 7.85362C8.53604 8.19666 8.29684 8.48986 7.98995 8.69615C7.68305 8.90243 7.32223 9.01254 6.95313 9.01254C6.45818 9.01254 5.9835 8.81475 5.63352 8.46268C5.28354 8.11061 5.08692 7.6331 5.08692 7.13519Z" fill="white"/>
</svg>
