<svg width="28" height="28" viewBox="0 0 28 28" fill="none" xmlns="http://www.w3.org/2000/svg">
<path d="M23.3713 23.3275H4.62878C3.64287 23.3263 2.69766 22.9342 2.00051 22.237C1.30336 21.5399 0.911192 20.5947 0.910034 19.6087V8.39124C0.911192 7.40532 1.30336 6.46011 2.00051 5.76296C2.69766 5.06581 3.64287 4.67364 4.62878 4.67249H23.3713C24.3572 4.67364 25.3024 5.06581 25.9996 5.76296C26.6967 6.46011 27.0889 7.40532 27.09 8.39124V19.6087C27.0889 20.5947 26.6967 21.5399 25.9996 22.237C25.3024 22.9342 24.3572 23.3263 23.3713 23.3275ZM4.62878 5.98499C3.99061 5.98499 3.37857 6.2385 2.92731 6.68976C2.47605 7.14102 2.22253 7.75306 2.22253 8.39124V19.6087C2.22253 20.2469 2.47605 20.859 2.92731 21.3102C3.37857 21.7615 3.99061 22.015 4.62878 22.015H23.3713C24.0095 22.015 24.6215 21.7615 25.0728 21.3102C25.524 20.859 25.7775 20.2469 25.7775 19.6087V8.39124C25.7775 7.75306 25.524 7.14102 25.0728 6.68976C24.6215 6.2385 24.0095 5.98499 23.3713 5.98499H4.62878Z" fill="white"/>
<path d="M14 16.66C13.1904 16.6613 12.4025 16.3986 11.7556 15.9119L1.54 8.18563C1.46782 8.13497 1.40659 8.07029 1.35997 7.99544C1.31335 7.92059 1.28229 7.83712 1.26864 7.75C1.255 7.66288 1.25906 7.5739 1.28057 7.48839C1.30208 7.40287 1.3406 7.32257 1.39384 7.25227C1.44707 7.18197 1.51393 7.12313 1.59042 7.07925C1.6669 7.03536 1.75145 7.00735 1.83901 6.99687C1.92656 6.98639 2.01533 6.99366 2.10001 7.01826C2.18469 7.04285 2.26355 7.08425 2.33187 7.14L12.5475 14.875C12.967 15.1882 13.4765 15.3574 14 15.3574C14.5235 15.3574 15.033 15.1882 15.4525 14.875L25.6681 7.14C25.7364 7.08425 25.8153 7.04285 25.9 7.01826C25.9847 6.99366 26.0734 6.98639 26.161 6.99687C26.2485 7.00735 26.3331 7.03536 26.4096 7.07925C26.4861 7.12313 26.5529 7.18197 26.6062 7.25227C26.6594 7.32257 26.6979 7.40287 26.7194 7.48839C26.7409 7.5739 26.745 7.66288 26.7314 7.75C26.7177 7.83712 26.6866 7.92059 26.64 7.99544C26.5934 8.07029 26.5322 8.13497 26.46 8.18563L16.2444 15.9119C15.5975 16.3986 14.8096 16.6613 14 16.66Z" fill="white"/>
<path d="M1.82433 21.4987C1.69123 21.4989 1.56122 21.4587 1.45154 21.3832C1.34187 21.3078 1.25772 21.2009 1.21026 21.0765C1.16279 20.9522 1.15426 20.8163 1.1858 20.687C1.21734 20.5577 1.28745 20.441 1.38683 20.3525L9.43683 13.1731C9.56678 13.0571 9.73751 12.9974 9.91145 13.0073C10.0854 13.0171 10.2483 13.0957 10.3643 13.2256C10.4804 13.3556 10.54 13.5263 10.5302 13.7002C10.5203 13.8742 10.4418 14.0371 10.3118 14.1531L2.26183 21.3325C2.14228 21.4413 1.98594 21.5007 1.82433 21.4987ZM26.1756 21.4987C26.014 21.5007 25.8576 21.4413 25.7381 21.3325L17.6881 14.1531C17.5581 14.0371 17.4796 13.8742 17.4697 13.7002C17.4599 13.5263 17.5195 13.3556 17.6356 13.2256C17.7516 13.0957 17.9145 13.0171 18.0885 13.0073C18.2624 12.9974 18.4331 13.0571 18.5631 13.1731L26.6087 20.3525C26.7081 20.441 26.7782 20.5577 26.8097 20.687C26.8413 20.8163 26.8327 20.9522 26.7853 21.0765C26.7378 21.2009 26.6537 21.3078 26.544 21.3832C26.4343 21.4587 26.3043 21.4989 26.1712 21.4987H26.1756Z" fill="white"/>
</svg>
