<svg width="20" height="19" viewBox="0 0 20 19" fill="none" xmlns="http://www.w3.org/2000/svg">
<path d="M13.6066 1.58319C14.6671 1.58632 15.6833 2.0044 16.4331 2.7461C17.183 3.48781 17.6057 4.49288 17.6089 5.54181V13.4582C17.6057 14.5071 17.183 15.5122 16.4331 16.2539C15.6833 16.9956 14.6671 17.4137 13.6066 17.4168H5.60292C4.54243 17.4137 3.52627 16.9956 2.77639 16.2539C2.0265 15.5122 1.60382 14.5071 1.60065 13.4582V5.54181C1.60382 4.49288 2.0265 3.48781 2.77639 2.7461C3.52627 2.0044 4.54243 1.58632 5.60292 1.58319H13.6066ZM13.6066 0H5.60292C2.52125 0 0 2.49375 0 5.54181V13.4582C0 16.5062 2.52125 19 5.60292 19H13.6066C16.6883 19 19.2095 16.5062 19.2095 13.4582V5.54181C19.2095 2.49375 16.6883 0 13.6066 0Z" fill="white"/>
<path d="M14.8073 5.54224C14.5698 5.54224 14.3377 5.47259 14.1403 5.34211C13.9428 5.21162 13.7889 5.02616 13.6981 4.80917C13.6072 4.59219 13.5834 4.35342 13.6298 4.12307C13.6761 3.89271 13.7904 3.68112 13.9583 3.51505C14.1262 3.34897 14.3402 3.23587 14.5731 3.19005C14.806 3.14423 15.0474 3.16775 15.2667 3.25763C15.4861 3.34751 15.6736 3.49971 15.8055 3.695C15.9375 3.89028 16.0079 4.11987 16.0079 4.35474C16.0082 4.51078 15.9774 4.66534 15.9172 4.80957C15.857 4.9538 15.7685 5.08484 15.657 5.19517C15.5454 5.30551 15.4129 5.39297 15.2671 5.45253C15.1213 5.51209 14.965 5.54257 14.8073 5.54224Z" fill="white"/>
<path d="M9.60487 6.33368C10.2381 6.33368 10.8571 6.51941 11.3837 6.86738C11.9102 7.21536 12.3206 7.70994 12.5629 8.2886C12.8052 8.86726 12.8686 9.504 12.7451 10.1183C12.6215 10.7326 12.3166 11.2969 11.8688 11.7398C11.4211 12.1826 10.8506 12.4843 10.2295 12.6064C9.60842 12.7286 8.96466 12.6659 8.37962 12.4262C7.79458 12.1865 7.29454 11.7807 6.94273 11.2599C6.59092 10.7391 6.40314 10.1268 6.40314 9.50049C6.40405 8.66087 6.74167 7.85591 7.34191 7.26221C7.94215 6.66851 8.756 6.33458 9.60487 6.33368ZM9.60487 4.75049C8.65505 4.75049 7.72656 5.02907 6.93681 5.55101C6.14707 6.07294 5.53153 6.81479 5.16805 7.68274C4.80457 8.55069 4.70947 9.50576 4.89477 10.4272C5.08007 11.3486 5.53745 12.1949 6.20908 12.8592C6.8807 13.5235 7.7364 13.9759 8.66797 14.1592C9.59955 14.3425 10.5651 14.2484 11.4427 13.8889C12.3202 13.5294 13.0702 12.9206 13.5979 12.1394C14.1256 11.3583 14.4073 10.4399 14.4073 9.50049C14.4073 8.24071 13.9013 7.03253 13.0007 6.14173C12.1 5.25093 10.8785 4.75049 9.60487 4.75049Z" fill="white"/>
</svg>
