<svg width="64" height="64" viewBox="0 0 64 64" fill="none" xmlns="http://www.w3.org/2000/svg">
<path d="M48.648 53.335C48.3239 53.3354 48.0084 53.2307 47.7487 53.0368C47.4891 52.8429 47.2992 52.57 47.2076 52.2592C47.1159 51.9483 47.1274 51.6161 47.2403 51.3123C47.3533 51.0085 47.5615 50.7495 47.834 50.574C49.2473 49.6429 50.4493 48.4253 51.362 47C52.225 45.689 52.521 44.628 52.244 43.844C51.681 42.25 48.65 41.099 46.073 40.274C44.9352 39.9056 43.7175 39.8594 42.5551 40.1406C41.3926 40.4217 40.3307 41.0193 39.487 41.867L38.511 42.844C38.3362 43.0191 38.1208 43.1483 37.884 43.22C37.214 43.42 33.537 44.084 26.729 37.275C26.5895 37.1357 26.4787 36.9703 26.4031 36.7883C26.3275 36.6062 26.2885 36.411 26.2883 36.2139C26.2881 36.0168 26.3268 35.8215 26.402 35.6393C26.4773 35.4571 26.5877 35.2915 26.727 35.152C26.8663 35.0125 27.0317 34.9017 27.2137 34.8261C27.3958 34.7505 27.591 34.7115 27.7881 34.7113C27.9852 34.7111 28.1805 34.7498 28.3627 34.825C28.5449 34.9003 28.7105 35.0107 28.85 35.15C33.316 39.617 35.93 40.245 36.79 40.318L37.366 39.742C38.5992 38.5047 40.1503 37.6323 41.8482 37.2212C43.546 36.81 45.3244 36.876 46.987 37.412C50.352 38.49 54.028 39.886 55.072 42.84C55.679 44.555 55.272 46.508 53.872 48.64C52.7301 50.419 51.2273 51.9385 49.461 53.1C49.2182 53.2547 48.9359 53.3363 48.648 53.335ZM41.441 55.347C34.575 55.347 26.692 51.377 19.658 44.342C19.5147 44.2036 19.4005 44.0381 19.3219 43.8551C19.2432 43.6721 19.2019 43.4753 19.2001 43.2761C19.1984 43.0769 19.2364 42.8794 19.3118 42.6951C19.3872 42.5107 19.4986 42.3432 19.6394 42.2024C19.7803 42.0616 19.9477 41.9502 20.1321 41.8748C20.3164 41.7993 20.5139 41.7614 20.7131 41.7631C20.9123 41.7648 21.1091 41.8062 21.2921 41.8848C21.4751 41.9635 21.6406 42.0777 21.779 42.221C28.417 48.86 36.049 52.633 42.169 52.329C42.3663 52.3163 42.5642 52.3433 42.7509 52.4083C42.9377 52.4734 43.1095 52.5752 43.2562 52.7077C43.4029 52.8403 43.5216 53.0009 43.6052 53.1801C43.6888 53.3593 43.7357 53.5534 43.743 53.751C43.7631 54.1483 43.6246 54.5373 43.358 54.8325C43.0913 55.1277 42.7183 55.3048 42.321 55.325C42.03 55.339 41.736 55.347 41.441 55.347Z" fill="white"/>
<path d="M20.718 44.782C20.521 44.7822 20.326 44.7434 20.1441 44.6679C19.9622 44.5923 19.797 44.4816 19.658 44.342C12.09 36.775 8.00801 27.989 8.73901 20.84C8.9467 18.6669 9.6515 16.5707 10.7989 14.7136C11.9463 12.8564 13.5055 11.2881 15.356 10.13C17.493 8.73001 19.446 8.32301 21.156 8.93001C24.11 9.97401 25.507 13.65 26.584 17.015C27.1208 18.6776 27.1872 20.4562 26.776 22.1541C26.3648 23.8521 25.492 25.4033 24.254 26.636L23.663 27.228C23.735 28.001 24.318 30.628 28.846 35.152C29.1192 35.4349 29.2704 35.8138 29.267 36.2071C29.2636 36.6004 29.1058 36.9766 28.8277 37.2547C28.5496 37.5328 28.1734 37.6906 27.7801 37.694C27.3868 37.6974 27.0079 37.5462 26.725 37.273C19.917 30.466 20.579 26.787 20.78 26.119C20.8511 25.8819 20.9803 25.6664 21.156 25.492L22.133 24.515C22.98 23.6711 23.5772 22.6094 23.8583 21.4472C24.1394 20.285 24.0937 19.0678 23.726 17.93C22.901 15.352 21.75 12.321 20.157 11.758C19.372 11.481 18.31 11.777 17 12.639C15.519 13.5492 14.2706 14.7922 13.354 16.2693C12.4375 17.7464 11.878 19.4168 11.72 21.148C11.079 27.408 14.838 35.287 21.775 42.223C21.9849 42.4328 22.1279 42.7001 22.1858 42.9912C22.2438 43.2822 22.2141 43.584 22.1005 43.8581C21.9869 44.1323 21.7945 44.3666 21.5477 44.5314C21.3009 44.6962 21.0108 44.7841 20.714 44.784L20.718 44.782Z" fill="white"/>
</svg>
