<svg width="22" height="18" viewBox="0 0 22 18" fill="none" xmlns="http://www.w3.org/2000/svg">
<path d="M22 2.06268C21.1748 2.41735 20.3016 2.65101 19.4081 2.75628C20.3471 2.21245 21.0532 1.34848 21.3941 0.326408C20.5063 0.839851 19.5367 1.20011 18.5268 1.39174C18.1015 0.95089 17.59 0.600179 17.0234 0.360927C16.4568 0.121676 15.8469 -0.00111852 15.2309 7.67695e-06C12.7366 7.67695e-06 10.7181 1.96748 10.7181 4.39282C10.7164 4.73017 10.7554 5.06652 10.8345 5.39468C9.04598 5.31175 7.29462 4.86047 5.69249 4.0697C4.09037 3.27894 2.67276 2.16611 1.53038 0.802409C1.1296 1.47068 0.917644 2.23315 0.916667 3.01015C0.916667 4.53335 1.72013 5.87975 2.93333 6.66855C2.21454 6.65168 1.51048 6.46351 0.880917 6.12002V6.17442C0.880917 8.30509 2.43925 10.0776 4.50175 10.4811C4.1139 10.5834 3.71423 10.6352 3.31283 10.6352C3.02802 10.6357 2.74384 10.6084 2.46446 10.5536C3.03783 12.299 4.70663 13.5683 6.68342 13.6046C5.07713 14.829 3.10503 15.4908 1.07708 15.4859C0.717117 15.4854 0.357484 15.4642 0 15.4224C2.06304 16.7254 4.46116 17.4146 6.90892 17.408C15.2213 17.408 19.7624 10.7123 19.7624 4.90508C19.7624 4.71468 19.7574 4.52428 19.7482 4.33842C20.6296 3.71828 21.3922 2.94764 22 2.06268Z" fill="white"/>
</svg>
