<svg width="59" height="58" viewBox="0 0 59 58" fill="none" xmlns="http://www.w3.org/2000/svg">
<path d="M54.3475 43.09C56.7515 38.783 58.0135 33.9325 58.0135 29C58.0135 24.0675 56.7515 19.217 54.3475 14.91C54.335 14.7699 54.2922 14.6343 54.2221 14.5124C54.152 14.3905 54.0563 14.2853 53.9415 14.204C50.6994 8.73878 45.7519 4.48973 39.8597 2.11012C33.9676 -0.269487 27.4569 -0.64791 21.3287 1.03303C15.2006 2.71397 9.79413 6.36122 5.94066 11.414C2.08718 16.4668 0 22.6455 0 29C0 35.3545 2.08718 41.5332 5.94066 46.586C9.79413 51.6388 15.2006 55.286 21.3287 56.967C27.4569 58.6479 33.9676 58.2695 39.8597 55.8899C45.7519 53.5103 50.6994 49.2612 53.9415 43.796C54.0563 43.7147 54.152 43.6095 54.2221 43.4876C54.2922 43.3657 54.335 43.2301 54.3475 43.09ZM12.3935 44H16.9725C17.9312 47.7737 19.6839 51.2995 22.1135 54.342C17.8403 52.0366 14.4298 48.4078 12.3935 44ZM2.0385 30H7.0325C7.1237 34.1026 7.90949 38.16 9.3565 42H5.3565C3.32407 38.3158 2.18742 34.205 2.0385 30ZM5.3585 16H9.3585C7.91149 19.84 7.1257 23.8974 7.0345 28H2.0385C2.18803 23.7949 3.32537 19.684 5.3585 16ZM45.6335 14H41.0545C40.0958 10.2263 38.3431 6.70054 35.9135 3.65801C40.1867 5.96342 43.5972 9.59219 45.6335 14ZM55.9885 28H50.9945C50.9033 23.8974 50.1175 19.84 48.6705 16H52.6705C54.7029 19.6842 55.8396 23.795 55.9885 28ZM48.9945 28H43.0015C42.9583 23.9604 42.4798 19.9371 41.5745 16H46.5355C48.0695 19.8198 48.9025 23.8848 48.9945 28ZM28.0135 16V28H17.0255C17.079 23.9552 17.591 19.9295 18.5515 16H28.0135ZM19.1035 14C21.1035 7.41401 24.3555 2.82301 28.0135 2.10601V14H19.1035ZM28.0135 30V42H18.5515C17.591 38.0705 17.079 34.0448 17.0255 30H28.0135ZM28.0135 44V55.894C24.3555 55.177 21.1045 50.586 19.1035 44H28.0135ZM30.0135 42V30H41.0015C40.948 34.0448 40.436 38.0705 39.4755 42H30.0135ZM38.9235 44C36.9235 50.586 33.6705 55.177 30.0135 55.894V44H38.9235ZM30.0135 28V16H39.4755C40.436 19.9295 40.948 23.9552 41.0015 28H30.0135ZM30.0135 14V2.10601C33.6705 2.82301 36.9215 7.41401 38.9235 14H30.0135ZM22.1135 3.65801C19.6839 6.70054 17.9312 10.2263 16.9725 14H12.3935C14.4298 9.59219 17.8403 5.96342 22.1135 3.65801ZM16.4515 16C15.5465 19.9372 15.0684 23.9604 15.0255 28H9.0325C9.12419 23.8848 9.95684 19.8198 11.4905 16H16.4515ZM9.0325 30H15.0255C15.0684 34.0396 15.5465 38.0628 16.4515 42H11.4905C9.95684 38.1802 9.12419 34.1152 9.0325 30ZM35.9135 54.342C38.3431 51.2995 40.0958 47.7737 41.0545 44H45.6335C43.5972 48.4078 40.1867 52.0366 35.9135 54.342ZM41.5745 42C42.4798 38.0629 42.9583 34.0397 43.0015 30H48.9945C48.9025 34.1153 48.0695 38.1802 46.5355 42H41.5745ZM50.9945 30H55.9885C55.839 34.2051 54.7016 38.316 52.6685 42H48.6685C50.1162 38.1601 50.9027 34.1027 50.9945 30ZM51.4505 14H47.8355C46.3061 10.5842 44.0941 7.5173 41.3355 4.98801C45.4136 7.09037 48.8933 10.1906 51.4505 14ZM16.6905 4.98801C13.9325 7.51762 11.7209 10.5844 10.1915 14H6.5765C9.13334 10.1907 12.6127 7.0904 16.6905 4.98801ZM6.5765 44H10.1915C11.7212 47.4157 13.9332 50.4825 16.6915 53.012C12.6133 50.9098 9.13361 47.8095 6.5765 44ZM41.3355 53.012C44.0941 50.4827 46.3061 47.4158 47.8355 44H51.4505C48.8933 47.8094 45.4136 50.9096 41.3355 53.012Z" fill="#7A295F"/>
</svg>
