<svg width="23" height="17" viewBox="0 0 23 17" fill="none" xmlns="http://www.w3.org/2000/svg">
<path d="M22.9947 5.99133C23.0464 4.4183 22.7193 2.85704 22.0439 1.45251C21.5857 0.876203 20.9497 0.487284 20.2469 0.353526C17.3398 0.0760593 14.4206 -0.0376651 11.502 0.0128398C8.59392 -0.0399574 5.68528 0.0700972 2.78837 0.342536C2.21563 0.452124 1.6856 0.734701 1.26297 1.15579C0.322649 2.06795 0.21817 3.62851 0.11369 4.9473C-0.0378968 7.31843 -0.0378968 9.6976 0.11369 12.0687C0.143916 12.811 0.248985 13.5478 0.427129 14.2667C0.553105 14.8218 0.807981 15.3353 1.16893 15.7613C1.59444 16.2047 2.13682 16.5034 2.72568 16.6185C4.97817 16.911 7.24778 17.0322 9.51685 16.9812C13.1736 17.0362 16.3811 16.9812 20.1738 16.6735C20.7771 16.5654 21.3347 16.2664 21.7723 15.8163C22.0648 15.5085 22.2833 15.1317 22.4096 14.7173C22.7833 13.5113 22.9668 12.2491 22.9529 10.9807C22.9947 10.3653 22.9947 6.65073 22.9947 5.99133ZM9.14072 11.6401V4.8374L15.3259 8.25525C13.5915 9.26632 11.3034 10.4093 9.14072 11.6401Z" fill="white"/>
</svg>
